{
  "streams": [
    {
      "index": 0,
      "codec_name": "prores",
      "codec_long_name": "Apple ProRes (iCodec Pro)",
      "codec_type": "video",
      "codec_time_base": "1001/60000",
      "codec_tag_string": "apcn",
      "codec_tag": "0x6e637061",
      "width": 1280,
      "height": 720,
      "coded_width": 1280,
      "coded_height": 720,
      "has_b_frames": 0,
      "sample_aspect_ratio": "1:1",
      "display_aspect_ratio": "16:9",
      "pix_fmt": "yuv422p10le",
      "level": -99,
      "color_range": "tv",
      "color_space": "bt709",
      "color_transfer": "bt709",
      "color_primaries": "bt709",
      "field_order": "progressive",
      "refs": 1,
      "r_frame_rate": "60000/1001",
      "avg_frame_rate": "60000/1001",
      "time_base": "1/60000",
      "start_pts": 0,
      "start_time": "0.000000",
      "duration_ts": 1358357,
      "duration": "22.639283",
      "bit_rate": "138464250",
      "bits_per_raw_sample": "10",
      "nb_frames": "1357",
      "disposition": {
        "default": 1,
        "dub": 0,
        "original": 0,
        "comment": 0,
        "lyrics": 0,
        "karaoke": 0,
        "forced": 0,
        "hearing_impaired": 0,
        "visual_impaired": 0,
        "clean_effects": 0,
        "attached_pic": 0,
        "timed_thumbnails": 0
      },
      "tags": {
        "creation_time": "2019-11-09T17:04:47.000000Z",
        "language": "eng",
        "handler_name": "Apple Video Media Handler",
        "encoder": "Apple ProRes 422",
        "timecode": "00:00:00:00"
      }
    },
    {
      "index": 1,
      "codec_name": "pcm_s16le",
      "codec_long_name": "PCM signed 16-bit little-endian",
      "codec_type": "audio",
      "codec_time_base": "1/48000",
      "codec_tag_string": "sowt",
      "codec_tag": "0x74776f73",
      "sample_fmt": "s16",
      "sample_rate": "48000",
      "channels": 2,
      "channel_layout": "stereo",
      "bits_per_sample": 16,
      "r_frame_rate": "0/0",
      "avg_frame_rate": "0/0",
      "time_base": "1/48000",
      "start_pts": 0,
      "start_time": "0.000000",
      "duration_ts": 1086685,
      "duration": "22.639271",
      "bit_rate": "1536000",
      "nb_frames": "1086685",
      "disposition": {
        "default": 1,
        "dub": 0,
        "original": 0,
        "comment": 0,
        "lyrics": 0,
        "karaoke": 0,
        "forced": 0,
        "hearing_impaired": 0,
        "visual_impaired": 0,
        "clean_effects": 0,
        "attached_pic": 0,
        "timed_thumbnails": 0
      },
      "tags": {
        "creation_time": "2019-11-09T17:04:47.000000Z",
        "language": "eng",
        "handler_name": "Apple Sound Media Handler",
        "timecode": "00:00:00:00"
      }
    },
    {
      "index": 2,
      "codec_type": "data",
      "codec_tag_string": "tmcd",
      "codec_tag": "0x64636d74",
      "r_frame_rate": "0/0",
      "avg_frame_rate": "60/1",
      "time_base": "1/60000",
      "start_pts": 0,
      "start_time": "0.000000",
      "duration_ts": 1358357,
      "duration": "22.639283",
      "bit_rate": "1",
      "nb_frames": "1",
      "disposition": {
        "default": 1,
        "dub": 0,
        "original": 0,
        "comment": 0,
        "lyrics": 0,
        "karaoke": 0,
        "forced": 0,
        "hearing_impaired": 0,
        "visual_impaired": 0,
        "clean_effects": 0,
        "attached_pic": 0,
        "timed_thumbnails": 0
      },
      "tags": {
        "creation_time": "2019-11-09T17:04:47.000000Z",
        "language": "eng",
        "handler_name": "Time Code Media Handler",
        "timecode": "00:00:00:00"
      }
    }
  ]
}
